<svg viewBox="0 0 32 32" fill="none" xmlns="http://www.w3.org/2000/svg">
  <defs>
    <linearGradient id="border" x1="0%" y1="0%" x2="100%" y2="100%">
      <stop offset="0%" stop-color="#f5c842" />
      <stop offset="100%" stop-color="#d4941c" />
    </linearGradient>
    <clipPath id="clip">
      <rect x="1" y="1" width="30" height="30" rx="7" />
    </clipPath>
    <linearGradient id="g" x1="0%" y1="0%" x2="100%" y2="100%">
      <stop offset="0%" stop-color="#f5c842" />
      <stop offset="100%" stop-color="#d4941c" />
    </linearGradient>
    <mask id="m">
      <rect x="-6" y="-3" width="40" height="38" fill="white" />
      <circle cx="12" cy="20" r="5" fill="black" />
      <circle cx="14.5" cy="19" r="4.5" fill="white" />
      <path d="M15.5,16.0L15.9,18.6L18.5,19.0L15.9,19.4L15.5,22.0L15.1,19.4L12.5,19.0L15.1,18.6Z" fill="black" />
    </mask>
    <filter id="glow" x="-30%" y="-30%" width="160%" height="160%">
      <feDropShadow dx="0" dy="0.5" stdDeviation="2.5" flood-color="white" flood-opacity="0.4" />
    </filter>
  </defs>
  <rect x="1" y="1" width="30" height="30" rx="7" fill="#0a0a1a" />
  <g clip-path="url(#clip)">
    <svg viewBox="-5.25 -3 38 38" x="1" y="1" width="30" height="30">
      <g filter="url(#glow)">
        <path d="M5.0,5.5L5.9,9.1L9.5,10.0L5.9,10.9L5.0,14.5L4.1,10.9L0.5,10.0L4.1,9.1Z" fill="url(#g)" />
        <rect x="19" y="4" width="3.8" height="24" rx="1.9" fill="url(#g)" />
        <circle cx="13.5" cy="20" r="8" fill="url(#g)" mask="url(#m)" />
      </g>
    </svg>
  </g>
  <rect x="1.5" y="1.5" width="29" height="29" rx="6.5" fill="none" stroke="url(#border)" stroke-width="1.2" />
</svg>
